# xmcd
#
# Track frame offsets:
#	150
#	28472
#	47347
#	78572
#	96172
#	116852
#	130045
#	151507
#	167247
#	184367
#	199065
#	217305
#	231072
#	248092
#	261620
#	282440
#
# Disc length: 4040 seconds
#
# Revision: 2
# Processed by: cddbd v1.5.1PL0 Copyright (c) Steve Scherf et al.
# Submitted via: dBpowerAMP V4.0
#
DISCID=ee0fc610
DTITLE=Offenbach - Les Incontournables: Blues
DYEAR=1996
DGENRE=Blues
TTITLE0=Ayoye
TTITLE1=Mes blues passent pu dans' porte
TTITLE2=Everyday I get the blues
TTITLE3=L'ouragan
TTITLE4=J'me crinque un blues
TTITLE5=Georgia on my mind
TTITLE6=Câline de blues
TTITLE7=Palais des glaces (sueurs froides)
TTITLE8=Someone on the line
TTITLE9=Blues en d'sous d'zéro
TTITLE10=Hit an'run
TTITLE11=Strange time
TTITLE12=Parano
TTITLE13=Le bar salon des deux toxons
TTITLE14=Dimanche blues
TTITLE15=I'm a rocker
EXTD=
EXTT0=
EXTT1=
EXTT2=
EXTT3=
EXTT4=
EXTT5=
EXTT6=
EXTT7=
EXTT8=
EXTT9=
EXTT10=
EXTT11=
EXTT12=
EXTT13=
EXTT14=
EXTT15=
PLAYORDER=
